<svg width="124" height="22" viewBox="0 0 124 22" fill="none" xmlns="http://www.w3.org/2000/svg">
<g clip-path="url(#clip0_8_613)">
<path d="M29.4088 12.0811V18.3445H25.9554V12.5937C25.9554 11.6798 25.3395 11.078 24.4816 11.078C23.6238 11.078 23.0299 11.6575 23.0299 12.5937V18.3445H19.5985V8.18034H22.7439V9.00506C23.4258 8.35866 24.3937 7.93515 25.5814 7.93515C27.913 7.93515 29.4088 9.5846 29.4088 12.0811ZM41.0007 14.4883H34.5778C34.9518 15.2908 35.7436 15.6474 36.8214 15.6474C37.7893 15.6474 38.6251 15.3576 39.439 14.845L40.6707 17.23C39.461 18.1439 38.1412 18.5897 36.6895 18.5897C33.3681 18.5897 31.0585 16.2938 31.0585 13.2624C31.0585 10.231 33.412 7.93515 36.4255 7.93515C39.395 7.93515 41.2206 10.1641 41.2206 12.7497C41.2206 13.3739 41.1107 14.0425 41.0007 14.4883ZM34.4679 12.2148H37.9652C37.9212 11.2786 37.1734 10.6991 36.2935 10.6991C35.4357 10.6991 34.7318 11.234 34.4679 12.2148ZM52.0427 7.4002L49.7331 9.18338C49.1392 8.29179 48.5453 7.75683 47.5555 7.75683C46.8736 7.75683 46.3677 8.00202 46.3677 8.60385C46.3677 9.11651 46.6977 9.3617 47.5115 9.69604L49.0293 10.3424C51.2289 11.2786 52.4167 12.4154 52.4167 14.3992C52.4167 17.0294 50.283 18.5897 47.5555 18.5897C45.1359 18.5897 43.2223 17.386 42.2765 15.5805L44.608 13.7974C45.2459 14.6667 46.0818 15.536 47.5555 15.536C48.4794 15.536 48.9193 15.2016 48.9193 14.5552C48.9193 13.9311 48.5013 13.7305 47.5775 13.307L46.2138 12.7052C44.1021 11.769 42.8704 10.5431 42.8704 8.64843C42.8704 6.24113 44.806 4.68085 47.5115 4.68085C49.8211 4.70314 51.2948 5.83992 52.0427 7.4002ZM61.1271 15.4245V18.3445C60.4672 18.5005 59.7853 18.5897 59.1035 18.5897C56.31 18.5897 54.6822 17.23 54.6822 14.4661V11.1226H53.1645V8.18034H54.6822V5.75076H58.1356V8.18034H60.8191V11.1003H58.1356V14.1094C58.1356 15.0679 58.5975 15.4468 59.8513 15.4468C60.1593 15.4691 60.5992 15.4468 61.1271 15.4245ZM72.1251 14.4883H65.7023C66.0762 15.2908 66.8681 15.6474 67.9459 15.6474C68.9137 15.6474 69.7495 15.3576 70.5854 14.845L71.8172 17.23C70.6074 18.1439 69.2876 18.5897 67.8359 18.5897C64.5365 18.5897 62.2049 16.2938 62.2049 13.2624C62.2049 10.231 64.5585 7.93515 67.5719 7.93515C70.5414 7.93515 72.3671 10.1641 72.3671 12.7497C72.3451 13.3739 72.2571 14.0425 72.1251 14.4883ZM65.5923 12.2148H69.0677C69.0237 11.2786 68.2758 10.6991 67.396 10.6991C66.5601 10.6991 65.8782 11.234 65.5923 12.2148ZM84.9268 13.2401C84.9268 16.3384 82.9252 18.5897 80.1097 18.5897C79.0319 18.5897 78.152 18.233 77.5362 17.6535V22H74.0828V8.18034H77.2282V9.22796C77.8441 8.38095 78.8119 7.93515 80.0877 7.93515C82.9252 7.93515 84.9268 10.1418 84.9268 13.2401ZM81.3855 13.2624C81.3855 11.8359 80.4396 11.1003 79.4278 11.1003C78.46 11.1003 77.4702 11.7467 77.4702 13.2401C77.4702 14.7112 78.438 15.4245 79.4278 15.4245C80.4396 15.4245 81.3855 14.689 81.3855 13.2624Z" fill="white"/>
<path d="M99.0923 7.68997L96.6947 9.76291C95.8809 8.60385 94.8471 7.91286 93.3513 7.91286C91.1077 7.91286 89.744 9.42857 89.744 11.6575C89.744 13.9311 91.1957 15.4914 93.5493 15.4914C94.8251 15.4914 95.8149 15.0456 96.4528 14.2877V13.6636H93.3733V10.6545H99.9062V14.8896C98.7184 17.0294 96.3648 18.612 93.4173 18.612C89.3701 18.612 86.2246 15.6251 86.2246 11.6575C86.2246 7.71226 89.3481 4.70314 93.4173 4.70314C95.8369 4.70314 97.7945 5.77305 99.0923 7.68997ZM107.055 4.92603H101.842V18.3445H105.295V14.1763H107.033C109.936 14.1763 112.136 12.3262 112.136 9.54002C112.158 6.70922 109.958 4.92603 107.055 4.92603ZM107.055 11.1449H105.295V7.97973H107.055C108.023 7.97973 108.639 8.60385 108.639 9.54002C108.639 10.4985 108.023 11.1449 107.055 11.1449ZM122.804 7.4002L120.494 9.18338C119.901 8.29179 119.307 7.75683 118.317 7.75683C117.635 7.75683 117.129 8.00202 117.129 8.60385C117.129 9.11651 117.459 9.3617 118.273 9.69604L119.791 10.3424C121.99 11.2786 123.178 12.4154 123.178 14.3992C123.178 17.0294 121.044 18.5897 118.317 18.5897C115.897 18.5897 113.984 17.386 113.038 15.5805L115.369 13.7974C116.007 14.6667 116.843 15.536 118.317 15.536C119.241 15.536 119.681 15.2016 119.681 14.5552C119.681 13.9311 119.263 13.7305 118.339 13.307L116.975 12.7052C114.863 11.769 113.632 10.5431 113.632 8.64843C113.632 6.24113 115.567 4.68085 118.273 4.68085C120.582 4.70314 122.056 5.83992 122.804 7.4002Z" fill="#1BA6FF"/>
<path d="M10.6461 4.59171C6.79678 4.59171 3.67334 7.75685 3.67334 11.6576C3.67334 15.5583 6.79678 18.7234 10.6461 18.7234C14.4954 18.7234 17.6188 15.5583 17.6188 11.6576C17.6188 7.73456 14.4954 4.59171 10.6461 4.59171ZM10.6461 15.0456C8.79843 15.0456 7.2807 13.5076 7.2807 11.6353C7.2807 9.74064 8.79843 8.22494 10.6461 8.22494C12.4938 8.22494 14.0115 9.76293 14.0115 11.6353C14.0115 13.5299 12.5158 15.0456 10.6461 15.0456Z" fill="white"/>
<path d="M9.48028 12.8389L6.90674 11.7244L13.3516 8.93817L10.5801 15.4468L9.48028 12.8389Z" fill="#1BA6FF"/>
<path d="M12.9117 9.36169L10.5801 14.8896L9.63425 12.6829L7.45664 11.7467L12.9117 9.36169ZM13.7695 8.51468L12.7577 8.96047L7.28067 11.3232L6.33484 11.7244L7.28067 12.1256L9.30431 12.9949L10.1622 15.0456L10.5581 16.004L10.954 15.0456L13.3076 9.51772L13.7695 8.51468Z" fill="#2A354D"/>
<path d="M3.01346 7.48936C2.70552 7.48936 2.46356 7.24417 2.46356 6.93212C2.46356 6.82067 2.48556 6.73151 2.55155 6.64235C3.76133 4.61398 5.65299 3.12057 7.87459 2.45187C8.16054 2.36271 8.46849 2.54103 8.55647 2.8308C8.64446 3.12057 8.46849 3.43262 8.18254 3.52178C6.22489 4.12361 4.55319 5.4387 3.47538 7.22188C3.3874 7.4002 3.21143 7.48936 3.01346 7.48936Z" fill="#1BA6FF"/>
<path d="M0.549902 7.53393C0.241957 7.53393 0 7.28874 0 6.97668C0 6.88753 0.0219961 6.82066 0.0439921 6.75379C0.241957 6.33028 0.439921 5.90678 0.681878 5.50556C2.17761 3.00911 4.5092 1.18135 7.2587 0.334335C7.72062 0.200596 8.20454 0.0891474 8.68845 -1.16273e-05C8.99639 -0.0445912 9.28234 0.156017 9.32634 0.468073C9.37033 0.78013 9.17236 1.04761 8.86442 1.11448C8.4245 1.18135 7.98457 1.29279 7.56665 1.42653C5.08109 2.18439 2.96947 3.83383 1.62771 6.10738C1.40775 6.46402 1.20978 6.84295 1.05581 7.22187C0.967827 7.40019 0.769863 7.53393 0.549902 7.53393Z" fill="#1BA6FF"/>
</g>
<defs>
<clipPath id="clip0_8_613">
<rect width="123.2" height="22" fill="white"/>
</clipPath>
</defs>
</svg>
